<?xml version="1.0" encoding="UTF-8" standalone="no"?>
<svg width="1648px" height="1635px" viewBox="0 0 1648 1635" version="1.1" xmlns="http://www.w3.org/2000/svg" xmlns:xlink="http://www.w3.org/1999/xlink" xmlns:sketch="http://www.bohemiancoding.com/sketch/ns">
    <!-- Generator: Sketch 3.2.2 (9983) - http://www.bohemiancoding.com/sketch -->
    <title>Shape</title>
    <desc>Created with Sketch.</desc>
    <defs></defs>
    <g id="Page-1" stroke="none" stroke-width="1" fill="#525252" fill-rule="evenodd" sketch:type="MSPage">
        <g id="gear_shape" sketch:type="MSLayerGroup" fill="#525252">
            <path d="M1647.52134,771.831001 C1647.37262,769.078329 1647.30654,767.846766 1647.22394,766.276528 C1647.00904,758.957057 1646.57721,752.524108 1645.83029,746.171904 C1642.4384,705.797898 1635.67618,664.368548 1624.79395,612.939669 C1623.19238,605.127715 1619.57981,602.107993 1611.81119,601.441752 C1602.78159,600.779463 1595.56727,600.234184 1579.33456,598.995119 C1538.7442,595.896803 1520.70269,594.604053 1498.1477,593.304375 C1489.87095,592.890285 1486.60073,590.845299 1484.15281,583.84747 C1470.51647,543.29515 1452.0512,503.199984 1428.54899,462.048928 C1426.7364,458.418393 1426.53095,455.746071 1427.79334,453.039499 C1432.778,446.254099 1435.39824,442.747533 1441.27458,434.858572 C1447.14854,426.972806 1449.76718,423.468382 1453.07087,419.088636 C1458.16221,412.27531 1475.50955,388.997553 1476.89686,387.138169 C1486.38363,374.423178 1493.70728,364.656841 1500.86447,355.197185 C1504.69519,350.011756 1504.93348,346.006343 1501.27521,340.922669 C1491.65197,327.707162 1481.29464,314.151876 1469.91289,299.811569 C1468.52302,298.011811 1467.42731,296.536331 1464.97805,293.194635 C1462.51896,289.839512 1461.41665,288.355165 1460.00513,286.527497 C1437.36712,260.083198 1414.95892,235.736949 1391.68261,213.593437 C1384.65342,206.974141 1379.22849,206.268079 1371.07706,210.868799 C1332.91199,231.882142 1301.05024,249.163629 1270.35511,265.422757 C1267.81977,266.871706 1262.50676,266.808421 1260.50656,265.307461 C1221.26852,235.285668 1182.74005,210.272801 1143.16461,189.621847 C1141.2386,188.658161 1139.15256,184.357339 1139.33216,181.84154 C1141.91055,141.756128 1144.68677,101.677682 1147.66129,61.5992337 C1148.27198,54.8794568 1145.73193,51.3116886 1139.2613,49.079233 C1136.13323,48.0359253 1133.03291,46.9202986 1128.67481,45.292805 C1121.95875,42.7743034 1120.08918,42.0804718 1118.05488,41.3454686 C1075.69826,25.4061974 1030.70123,12.4942466 980.497568,1.42645865 C975.977084,0.398499681 972.426685,0.398499681 969.261499,1.45413055 C963.897759,1.58719953 962.33601,3.76366544 962.044413,4.20129742 C957.260545,12.7480249 953.413251,19.6970212 946.890102,31.4542199 C924.396045,71.9945824 914.983815,89.1742428 903.848476,110.27168 C902.69596,112.385577 901.543658,114.114962 900.402727,115.446766 C898.729536,116.580549 896.55524,117.049768 893.537079,116.694498 C853.529365,112.129749 812.737997,112.263563 757.310735,115.896128 C752.365048,116.276706 749.863554,114.934602 747.546165,110.475682 C739.89189,96.0004058 732.919483,83.0372315 720.170496,59.4906009 C719.72565,58.6689963 716.523041,52.7545629 715.585114,51.0221194 C713.825361,47.771685 712.385864,45.1115396 711.004089,42.5561235 C703.716645,29.0789278 698.163286,18.7477393 692.80619,8.67568075 C688.8617,1.19786835 684.105184,-1.04439104 675.501936,0.425248144 C626.70038,9.12546054 577.965459,23.5072751 516.080013,46.1088195 C511.997861,47.6969466 509.682388,49.2099079 508.245715,51.4687544 C503.862776,52.7780773 501.547921,55.8311222 501.945564,61.2022048 C503.121632,75.6906505 503.987721,87.3505012 505.862795,113.402356 C506.103112,116.741262 506.202919,118.127319 506.333197,119.933889 C508.238163,146.350287 509.429829,161.973982 510.870805,178.681364 C511.262214,184.165555 510.425029,186.678464 507.283599,189.123115 C471.349343,207.177603 436.589999,229.215202 401.393707,255.784807 C395.760077,259.938062 393.254145,261.752544 390.126912,263.893383 C388.202539,264.546423 386.146528,264.032143 382.645338,262.061661 C350.197233,244.046049 316.234754,225.639786 279.102897,205.896216 C275.116208,203.901455 268.853397,203.253229 266.83064,205.277076 C264.533405,206.45005 262.608514,207.715661 260.682803,209.64241 C249.376603,220.75619 238.262635,232.074722 227.347134,243.591821 C224.539474,246.400501 224.539474,246.400501 221.713452,249.228046 C218.887431,252.055592 218.887431,252.055592 216.061409,254.883137 C194.344055,279.356878 175.533111,301.816061 158.849228,324.444186 C148.301045,338.859218 146.398551,342.043184 146.261126,347.130656 C146.122177,352.274531 148.068197,355.807162 157.841893,369.848755 C158.703197,371.079856 161.654465,375.358222 162.030848,375.899977 C163.717043,378.327039 165.054306,380.199069 166.38997,381.980915 C171.56663,388.923589 175.698184,394.468368 184.985959,406.93591 C203.562018,431.871676 211.847503,442.98374 222.314702,456.984277 C195.133306,504.051885 175.632144,546.058822 161.877167,588.432507 C160.54701,592.55821 158.872522,593.318249 153.510738,593.456415 C135.683802,594.578165 122.619057,595.462846 93.242421,597.471952 C63.8675547,599.480937 50.8039939,600.365538 34.4439965,601.440259 C28.6086117,601.85728 25.7229879,604.592503 24.6109376,610.378283 C23.2955454,617.018531 22.1672353,622.202065 19.4379066,634.385566 C14.7491267,655.315898 12.8074034,664.863222 11.1174845,676.699032 C9.12046458,691.033163 7.47275178,705.382502 5.36150679,725.947175 C5.01144722,729.356946 4.74333387,731.997516 4.1094803,738.262562 C2.25196537,756.622347 1.3847376,764.90735 0.206576099,775.144269 C-0.958597862,784.664776 2.75770339,789.438896 12.5657733,792.862161 C27.3668068,798.2169 40.338691,803.014343 64.9762269,812.20142 C71.5104283,814.638066 72.3981475,814.969064 73.6881575,815.44996 C76.9795199,816.67693 79.7478237,817.708182 82.3984816,818.694537 C96.1727644,823.820183 106.868538,827.76793 117.265045,831.550516 C124.273863,834.082846 126.544919,837.05429 126.726819,844.334195 C127.441665,884.030889 133.434882,924.611508 144.798175,974.497737 C145.951622,979.883794 145.525877,982.904339 143.21053,985.755533 C125.504449,998.878832 112.129909,1008.85491 85.4589266,1028.87579 C82.3715958,1031.1934 80.7573308,1032.40518 79.2845113,1033.51066 C65.6801629,1043.72185 57.2539491,1050.02951 48.3944419,1056.6209 C45.4742942,1058.70762 43.5565639,1061.05277 42.6908554,1063.6513 C41.1285926,1066.14154 41.2613114,1068.75308 42.8939571,1073.4203 C44.9807267,1078.67604 46.6633627,1083.39759 49.6786242,1092.23943 C54.7193111,1107.02816 56.9446498,1113.09367 60.1783418,1120.32582 C63.9848165,1128.66234 67.9642923,1137.26147 72.2226797,1146.36187 C81.8300635,1166.89335 117.436227,1241.41306 115.915052,1238.21053 C124.780805,1236.98972 168.678593,1226.98553 181.086594,1224.16801 C205.216268,1218.68882 224.668674,1214.31461 243.352888,1210.1803 C245.930608,1209.66468 250.884128,1211.69799 252.437677,1213.94322 C278.156501,1249.65012 306.771416,1282.81153 338.037915,1313.10491 C342.466565,1317.80828 343.124033,1318.50722 343.943515,1319.40914 C342.312111,1331.18334 330.950951,1362.33347 328.698504,1368.5035 C322.146937,1386.44991 316.997566,1400.51062 312.016012,1414.03927 C310.285305,1418.57432 308.897327,1422.18667 305.774192,1430.29632 C302.650332,1438.40785 301.261868,1442.02146 299.526112,1446.56993 C302.806989,1449.9495 303.251465,1450.28514 303.842469,1450.70751 C313.609651,1458.63828 320.727884,1463.96739 327.636329,1468.95951 C333.287729,1473.20055 338.932454,1477.54843 346.446573,1483.422 C365.132921,1495.77171 381.227921,1506.55542 396.909398,1516.2248 C400.782636,1519.41937 416.503951,1528.08071 419.964331,1529.94499 C421.935661,1531.01338 423.49258,1531.89528 426.980773,1533.90022 C430.483265,1535.91337 432.049844,1536.80075 434.042694,1537.88079 C443.388796,1542.89035 444.646262,1543.54738 447.597826,1544.85989 C450.518571,1546.32219 451.799851,1546.97962 453.270192,1547.79691 C456.222389,1549.38751 462.647268,1548.16306 465.162041,1545.64694 C466.304416,1544.58652 467.210933,1543.69615 469.227546,1541.67845 C471.226859,1539.67806 472.121723,1538.79914 473.26662,1537.73545 C475.94176,1535.35658 477.175639,1534.22213 478.845936,1532.55094 C486.080021,1525.93038 487.678758,1524.41964 489.574809,1522.41098 C521.381709,1490.88512 535.561403,1476.83006 553.409975,1459.13722 C555.049948,1458.28666 556.965892,1458.03106 559.291858,1458.41893 C564.455467,1460.45054 566.87218,1461.37799 570.019529,1462.53817 C581.558488,1467.45232 590.079436,1470.605 598.665741,1472.88422 C633.672868,1484.43489 663.909685,1492.48613 693.344346,1497.70521 C697.347003,1499.12054 699.453997,1501.58002 700.475464,1507.03078 C705.63208,1533.18382 711.412057,1560.03389 719.124705,1594.17492 C719.948142,1598.04754 720.609103,1601.18053 722.096336,1608.2487 C723.583863,1615.31826 724.245017,1618.45216 725.071536,1622.3389 C726.306975,1628.10739 729.233653,1630.41159 735.289076,1630.86039 C738.62083,1631.13822 740.648423,1631.25995 742.700067,1631.25995 C756.325184,1633.14968 766.912392,1634.0172 777.224372,1633.83931 C786.636573,1634.48753 794.987706,1634.83158 802.790211,1634.83158 C817.151352,1634.83158 831.42305,1634.45609 852.30906,1633.64028 C855.370662,1633.52069 857.845735,1633.42154 863.316453,1633.20051 C882.599651,1632.42144 891.116174,1632.11189 901.774434,1631.85493 C904.910477,1631.85522 907.476786,1631.29033 909.730056,1630.16308 C914.514809,1630.05073 917.099943,1627.7685 918.190041,1622.5332 C921.03003,1609.58142 923.335613,1599.21128 928.547111,1575.87784 C936.365412,1540.87298 939.80465,1525.31463 943.970123,1505.86528 C944.89914,1501.40367 946.680752,1498.89958 949.724248,1497.6457 C991.993487,1490.62734 1031.67004,1478.91012 1079.00464,1460.74774 C1085.82822,1458.05282 1089.22863,1458.91164 1094.60708,1464.293 C1108.333,1478.22684 1120.2985,1490.17448 1143.81484,1513.51299 C1146.55807,1516.23539 1148.07907,1517.74483 1149.30142,1518.95802 C1161.49123,1531.05645 1168.89187,1538.41942 1176.71045,1546.24221 C1181.24211,1550.77631 1184.84172,1551.27779 1190.36307,1548.40514 C1196.02699,1545.68707 1197.98675,1544.62806 1202.37654,1542.24587 C1206.76229,1539.86588 1208.71929,1538.80836 1211.19554,1537.48698 C1223.40585,1531.2297 1228.77927,1528.30924 1235.26043,1524.1524 C1236.48989,1523.41484 1237.4641,1522.79001 1239.6317,1521.36909 C1241.7775,1519.96247 1242.73688,1519.34714 1243.96144,1518.61202 C1268.8258,1503.76898 1291.77866,1488.70576 1313.05146,1473.12263 C1317.65646,1470.02238 1322.46122,1466.82517 1328.5056,1462.83199 C1331.00028,1461.1839 1341.42962,1454.30998 1344.14793,1452.5139 C1342.7413,1446.68946 1342.47563,1445.99999 1342.14237,1445.16639 C1342.61483,1442.99929 1342.06643,1440.10618 1340.55206,1436.42644 C1327.15806,1401.46589 1313.88033,1365.62643 1300.70662,1328.92293 C1299.80052,1326.38449 1300.41489,1321.58989 1301.95487,1319.53546 C1327.62176,1294.68075 1350.93417,1268.83014 1371.95063,1241.7666 C1378.29104,1233.74358 1384.746,1225.18125 1391.60296,1215.74785 C1395.13095,1212.06262 1398.43275,1211.50031 1405.24289,1213.15214 C1432.32598,1219.79108 1457.39212,1225.6253 1500.65189,1235.4741 C1501.99419,1235.77969 1519.49509,1239.76169 1524.64336,1240.9347 C1528.57384,1235.5512 1528.99899,1234.81722 1529.50207,1233.89442 C1530.54904,1233.26819 1531.3983,1232.12292 1533.05155,1229.36602 C1534.9877,1225.49817 1536.81737,1222.09676 1540.16411,1216.04909 C1542.66389,1211.52899 1543.23662,1210.48664 1543.78091,1209.48824 C1545.87045,1205.60561 1546.79922,1203.84662 1547.96197,1201.51988 C1548.96928,1199.8458 1549.96517,1198.09402 1551.41291,1195.48037 C1553.79254,1191.18225 1554.34115,1190.20455 1554.87711,1189.26611 C1563.34549,1171.71611 1571.88306,1153.53916 1580.11182,1134.6028 C1581.84805,1133.22554 1591.59838,1107.2472 1594.40845,1099.83484 C1595.56164,1096.95074 1596.46367,1094.60749 1598.47365,1089.31914 C1600.4796,1084.0414 1601.37895,1081.70514 1602.53299,1078.81847 C1606.52178,1068.24303 1604.12082,1061.49825 1594.64738,1054.82018 C1579.86128,1044.02433 1567.26352,1034.65255 1542.13862,1015.83471 C1539.2298,1013.65602 1537.70942,1012.51727 1536.32109,1011.47757 C1523.50204,1001.87753 1515.5603,995.946971 1507.20894,989.751129 C1502.39029,986.198618 1500.77018,984.323372 1500.46603,981.128065 C1501.30053,976.86502 1501.56382,975.847726 1502.09637,973.79138 C1506.23173,957.814916 1508.04696,949.857054 1509.38481,940.48704 C1509.55265,938.980108 1509.70886,937.79552 1510.07946,935.125763 C1510.45255,932.438066 1510.61034,931.241563 1510.77693,929.741386 C1515.03636,904.713695 1517.92132,878.689212 1520.49763,845.179189 C1521.38503,839.202722 1523.16613,836.727635 1529.14344,834.734124 C1559.74143,824.143235 1584.0089,815.079374 1638.45697,794.241013 C1642.04909,792.803512 1646.23372,788.249359 1646.23372,785.178976 C1647.56697,781.95037 1648.08999,780.089724 1647.81534,777.341711 C1647.73622,775.816806 1647.6701,774.584602 1647.52134,771.831001 Z M1644.25055,785.178976 C1644.25055,787.298953 1640.63705,791.231539 1637.73444,792.393208 C1583.32032,813.218457 1559.06616,822.277343 1528.50569,832.855314 C1521.77,835.101689 1519.52564,838.22053 1518.52808,844.957703 C1515.94825,878.481606 1513.06948,904.450277 1508.81389,929.465347 C1508.64196,930.99845 1508.48574,932.183037 1508.11514,934.852794 C1507.74205,937.540492 1507.58427,938.736995 1507.41767,940.237172 C1506.09746,949.480194 1504.29376,957.387483 1500.17654,973.293913 C1498.70327,978.627142 1498.48733,979.923478 1498.48733,981.222127 C1498.86729,985.261032 1500.78288,987.478301 1506.03013,991.34678 C1514.3761,997.538631 1522.31589,1003.46774 1535.13273,1013.06612 C1536.521,1014.10578 1538.04132,1015.24448 1540.95017,1017.42319 C1566.08133,1036.24573 1578.68374,1045.62097 1593.49176,1056.43264 C1602.26702,1062.61872 1604.33369,1068.42442 1600.6846,1078.09973 C1599.532,1080.98225 1598.62997,1083.32549 1596.61999,1088.61384 C1594.61404,1093.89158 1593.7147,1096.22784 1592.56065,1099.11451 C1589.74272,1106.54715 1579.99138,1132.52821 1579.26623,1134.45247 C1570.0803,1152.71129 1561.5602,1170.85104 1552.73659,1188.12394 C1551.04582,1192.0443 1549.85881,1194.19268 1549.67832,1194.51852 C1548.2407,1197.11388 1547.25443,1198.84874 1546.22479,1200.56575 C1545.03721,1202.93565 1544.11502,1204.68216 1542.03734,1208.54279 C1539.97591,1212.29346 1539.70064,1212.79114 1539.33781,1213.44656 C1535.06963,1221.15866 1533.22981,1224.57893 1531.31437,1228.41189 C1529.84018,1230.86452 1529.09582,1231.86832 1528.05521,1232.61202 C1524.92124,1237.83547 1524.49609,1238.56946 1523.99302,1239.49226 C1519.93508,1237.82689 1502.43394,1233.84485 1501.0919,1233.53931 C1457.84215,1223.6928 1432.78443,1217.86053 1405.71247,1211.22432 C1398.27582,1209.42052 1394.257,1210.10495 1390.08376,1214.47927 C1383.1569,1223.99386 1376.71768,1232.53531 1370.3898,1240.54254 C1349.42662,1267.53742 1326.17656,1293.31889 1300.47175,1318.22752 C1298.41835,1320.9463 1297.71443,1326.43985 1298.83957,1329.59193 C1312.01852,1366.31006 1325.30114,1402.1627 1338.70927,1437.1593 C1340.10711,1440.55668 1340.59121,1443.11058 1340.24165,1445.384 C1342.08191,1450.5314 1342.34759,1451.22087 1342.68084,1452.05447 C1340.33801,1452.65338 1329.90874,1459.52725 1327.41286,1461.17614 C1321.364,1465.17228 1316.55469,1468.37251 1311.91201,1471.49908 C1290.65986,1487.06611 1267.75855,1502.09551 1242.94321,1516.90928 C1241.68669,1517.6636 1240.71248,1518.28842 1238.54487,1519.70935 C1236.39908,1521.11597 1235.43969,1521.73129 1234.21514,1522.46642 C1227.78072,1526.59276 1222.445,1529.49273 1210.27687,1535.72855 C1207.7806,1537.06046 1205.82084,1538.11947 1201.43104,1540.50166 C1197.0453,1542.88165 1195.08829,1543.93917 1192.61204,1545.26054 C1184.68424,1549.12324 1182.02417,1548.75265 1178.11276,1544.83914 C1170.29182,1537.01397 1162.88965,1529.64948 1150.69807,1517.54931 C1149.47568,1516.33608 1147.95464,1514.82659 1145.21145,1512.10423 C1121.70023,1488.77081 1109.7386,1476.82703 1096.01446,1462.89503 C1090.09407,1456.97141 1085.86771,1455.90398 1078.28551,1458.89857 C1031.07769,1477.01225 991.525501,1488.69275 952.363291,1494.95492 C945.260352,1497.33889 943.082346,1500.40012 942.029804,1505.45505 C937.867118,1524.89132 934.428712,1540.44589 926.611676,1575.4451 C921.399616,1598.78105 919.093661,1609.15286 916.250746,1622.11825 C915.34059,1626.48908 913.50825,1628.10672 909.245325,1628.28444 C906.875099,1629.37288 904.612252,1629.87098 901.750547,1629.87098 C891.054047,1630.12857 882.530407,1630.43838 863.236438,1631.21788 C857.7666,1631.43887 855.292124,1631.53801 852.231698,1631.65755 C831.369369,1632.47243 817.119918,1632.84734 802.790211,1632.84734 C795.038973,1632.84734 786.733812,1632.50518 777.67456,1631.85774 C766.997879,1632.03119 756.503758,1631.17129 742.835554,1629.28501 C740.719258,1629.2757 738.733286,1629.15648 735.444673,1628.88228 C730.220867,1628.49508 728.052589,1626.78798 727.010988,1621.92455 C726.185164,1618.04108 725.524203,1614.90809 724.03697,1607.83992 C722.549444,1600.77036 721.888289,1597.63645 721.06177,1593.74972 C713.350105,1559.61269 707.573675,1532.77909 702.422903,1506.65592 C701.272579,1500.51731 698.672734,1497.48252 693.844945,1495.79189 C664.360071,1490.55083 634.216238,1482.52435 601.615248,1471.57996 C590.69805,1468.71632 582.255346,1465.59259 570.750587,1460.69431 C567.572425,1459.52149 565.163416,1458.59699 559.814271,1456.51565 C556.875747,1456.00442 554.51264,1456.31967 552.237263,1457.56145 C534.165653,1475.42045 519.985972,1489.4755 488.156055,1521.02494 C486.283074,1523.00837 484.708734,1524.49605 481.091547,1527.78617 C479.268985,1529.44394 478.461613,1530.18535 477.463931,1531.12811 C475.808629,1532.78374 474.596595,1533.8981 471.933119,1536.26691 C470.748362,1537.36732 469.841844,1538.25768 467.825231,1540.27538 C465.825919,1542.27577 464.931054,1543.15469 463.786158,1544.21838 C461.841524,1546.1631 456.359628,1547.20783 454.22186,1546.05611 C452.728888,1545.22613 451.432043,1544.56073 448.443998,1543.0659 C445.518638,1541.76392 444.25964,1541.10609 434.983219,1536.1339 C433.013751,1535.06651 431.456833,1534.18461 427.96864,1532.17967 C424.466147,1530.16652 422.899568,1529.27914 420.906718,1528.1991 C417.455557,1526.33977 401.732552,1517.6775 397.303522,1515.29967 C382.308016,1504.89063 366.246467,1494.12933 348.026279,1481.23493 C340.143996,1475.97746 334.489808,1471.62229 328.811845,1467.36152 C321.906571,1462.37149 314.804978,1457.05485 307.602606,1451.49573 C304.429318,1448.68847 303.997892,1448.36269 303.040225,1447.62563 C303.113626,1442.73175 304.501604,1439.11941 307.62474,1431.00976 C310.748599,1422.89823 312.137064,1419.28462 313.872819,1414.73614 C318.859201,1401.19457 324.009158,1387.13226 330.561304,1369.18427 C332.813902,1363.01383 344.175011,1331.86384 347.393448,1323.05074 C347.208851,1321.15842 346.529942,1319.63005 345.484117,1318.1651 C340.938376,1313.32567 340.280908,1312.62673 339.461425,1311.72481 C308.235492,1281.46794 279.69724,1248.39538 254.057402,1212.79843 C252.066814,1209.92128 246.321446,1207.56293 242.944302,1208.23873 C224.236363,1212.37808 204.780614,1216.75304 180.647674,1222.23297 C168.238742,1225.0507 124.340546,1235.05499 116.590887,1236.81722 C119.224258,1240.55471 83.6221284,1166.04344 74.0187502,1145.52052 C69.7628722,1136.42549 65.7859678,1127.83191 61.9854016,1119.50841 C58.7879922,1112.35733 56.5767733,1106.3303 52.0170876,1092.95259 C48.5301807,1082.7272 46.8392917,1077.98248 44.7513518,1072.72613 C43.3113165,1068.60692 43.2067215,1066.54878 44.4760499,1064.485 C45.2930885,1062.11512 46.9450698,1060.09494 49.5624723,1058.22436 C58.4401215,1051.6197 66.8681669,1045.31067 80.4745963,1035.09792 C81.9474698,1033.9924 83.5617907,1032.78057 86.6490913,1030.46299 C113.31418,1010.44653 126.684346,1000.47372 142.384571,988.967351 C147.49523,983.625845 148.005661,980.00447 146.734546,974.069401 C135.396231,924.292448 129.421692,883.838298 128.709521,844.291527 C128.506465,836.163949 125.696291,832.487124 117.9407,829.684984 C107.551551,825.905072 96.8599413,821.958862 83.0897927,816.834754 C80.439543,815.848551 77.6715854,814.817428 74.380558,813.590583 C67.8471302,811.154416 67.8471302,811.154416 65.6687981,810.342107 C41.0254416,801.15286 28.0490426,796.353747 13.2295495,790.992397 C4.22276493,787.848734 1.13515455,783.882257 2.17588845,775.378347 C3.35627635,765.122307 4.22414218,756.831209 6.08256999,738.4624 C6.71632398,732.198339 6.98437388,729.558394 7.33429951,726.149928 C9.44330636,705.607055 11.088635,691.278479 13.0811962,676.976311 C14.7608587,665.212374 16.6956203,655.699281 21.3730657,634.819545 C24.1060314,622.619808 25.2365914,617.425938 26.5573482,610.758527 C27.5056362,605.824855 29.6729387,603.770514 34.5796085,603.419848 C50.9362835,602.345363 64.001028,601.460681 93.3776641,599.451575 C122.75253,597.44259 135.816091,596.557989 152.176089,595.483268 C159.670176,595.282595 162.109406,594.175445 163.76396,589.04356 C177.472517,546.812883 196.92071,504.920045 223.972638,456.876983 C213.436444,441.796406 205.151417,430.684956 186.576033,405.750096 C177.288087,393.282325 173.156419,387.737393 167.97802,380.792391 C166.657524,379.030774 165.333,377.176579 163.659249,374.767429 C163.286308,374.230628 160.332425,369.948472 159.467935,368.712819 C150.013744,355.130246 148.121712,351.695621 148.243575,347.184265 C148.364566,342.705189 150.233914,339.576696 160.447256,325.619242 C177.083181,303.056173 195.849462,280.650314 217.889334,256.652815 C220.289746,253.458663 220.289746,253.458663 223.115767,250.631117 L228.767811,244.976027 C239.685575,233.457048 250.783145,222.155216 262.078886,211.051662 C263.778699,209.350988 265.41569,208.27467 266.780706,207.933232 C269.457644,205.454799 274.916032,206.019764 278.194116,207.659689 C315.294069,227.386642 349.246169,245.787279 381.67807,263.793876 C385.628605,266.01727 388.189887,266.657935 391.020352,265.64651 C394.399594,263.37264 396.9177,261.549344 402.57914,257.375507 C437.692528,230.868566 472.350737,208.895087 507.740873,191.190477 C512.231414,187.7865 513.283494,184.628561 512.847787,178.525381 C511.406669,161.815105 510.215567,146.198796 508.311228,119.791093 C508.180959,117.984646 508.081156,116.598646 507.840846,113.259833 C505.965338,87.2019491 505.098948,75.5380601 503.922774,61.0486012 C503.596435,56.6403149 505.316983,54.3710976 509.409849,52.9378219 C511.077922,50.7116518 513.074606,49.4069916 516.779415,47.9654555 C578.546805,25.4072574 627.18011,11.0554302 675.84276,2.37995543 C683.607358,1.05360377 687.514815,2.89560982 691.053892,9.60484474 C696.415077,19.684604 701.970405,30.0194543 709.259826,43.5003061 C710.641785,46.0560635 712.081435,48.7164914 713.841337,51.9672012 C714.779309,53.6997271 717.981941,59.6142035 718.426753,60.4357445 C731.172793,83.9769326 738.142846,96.9357315 745.789937,111.397367 C748.476306,116.566301 751.736047,118.315221 757.451599,117.875326 C812.75967,114.250637 853.444536,114.117173 893.308873,118.665557 C896.785009,119.074741 899.446699,118.500341 901.724233,116.905208 C903.14734,115.291959 904.374846,113.449708 905.595816,111.210055 C916.728925,90.1170374 926.136581,72.9457242 946.550852,36.1537355 C955.148094,20.6584235 958.996167,13.7080206 963.105753,6.24743119 C963.960683,4.90248679 965.522431,2.72602089 966.037136,1.95354799 C972.672967,2.40793664 975.865357,2.40793664 980.064445,3.36278936 C1030.18721,14.4127665 1075.09477,27.2990418 1117.36903,43.207226 C1119.40596,43.9432756 1121.26952,44.6348756 1124.45793,45.8311736 C1132.35956,48.7867896 1135.47935,49.9094235 1138.62448,50.9583664 C1144.25518,52.9010906 1146.2108,55.6479629 1145.68491,61.4359412 C1142.70856,101.53724 1139.93189,141.622188 1137.35356,181.707137 C1137.12053,184.97087 1139.58338,190.048554 1142.26263,191.388901 C1181.7164,211.976528 1220.15017,236.927923 1259.30927,266.889257 C1261.9833,268.895922 1268.14808,268.969351 1271.31102,267.160984 C1301.98881,250.911627 1333.85948,233.6253 1372.04231,212.602119 C1379.44076,208.426446 1383.92132,209.009597 1390.31975,215.034893 C1413.53099,237.116521 1435.88451,261.403359 1457.85943,288.160841 C1459.83384,289.550867 1460.92956,291.026348 1463.37881,294.368044 C1465.83791,297.723166 1466.94021,299.207514 1468.35174,301.035182 C1479.72537,315.365396 1490.06625,328.899148 1499.66906,342.086588 C1502.79368,346.428699 1502.6113,349.494385 1499.27645,354.008662 C1492.12295,363.463345 1484.79686,373.232934 1475.30766,385.951176 C1473.91967,387.811482 1456.57297,411.088382 1451.48523,417.896892 C1448.18103,422.277307 1445.56079,425.783873 1439.68445,433.672835 C1433.81049,441.5586 1431.19185,445.063024 1427.88816,449.44277 C1424.45597,455.502705 1424.7094,458.799107 1426.80115,462.984848 C1450.26836,504.07769 1468.68018,544.056815 1482.27707,584.49159 C1485.01945,592.331397 1489.02234,594.834553 1498.04117,595.285738 C1520.57228,596.584069 1538.60562,597.876233 1579.1837,600.973613 C1595.41837,602.212827 1602.634,602.758205 1611.65402,603.419715 C1618.55902,604.011967 1621.43142,606.412987 1622.8525,613.344519 C1633.72035,664.705525 1640.47015,706.058769 1643.8574,746.370939 C1644.60031,752.693753 1645.02833,759.069961 1645.24256,766.35784 C1645.32617,767.952297 1645.39229,769.184501 1645.54106,771.938101 C1645.68977,774.690774 1645.75586,775.922337 1645.83846,777.492575 C1646.04364,779.556571 1644.25055,785.178976 1644.25055,785.178976 Z" id="Shape" sketch:type="MSShapeGroup"></path>
        </g>
    </g>
</svg>