<?xml version="1.0" encoding="UTF-8" standalone="no"?>
<svg width="148px" height="146px" viewBox="0 0 148 146" version="1.1" xmlns="http://www.w3.org/2000/svg" xmlns:xlink="http://www.w3.org/1999/xlink" xmlns:sketch="http://www.bohemiancoding.com/sketch/ns">
    <!-- Generator: Sketch 3.2.2 (9983) - http://www.bohemiancoding.com/sketch -->
    <title>Stroke 4</title>
    <desc>Created with Sketch.</desc>
    <defs>
        <linearGradient x1="49.9136746%" y1="0%" x2="49.9136746%" y2="100%" id="linearGradient-1">
            <stop stop-color="#FFFFFF" offset="0%"></stop>
            <stop stop-color="#F9F9F9" offset="0%"></stop>
            <stop stop-color="#717171" offset="100%"></stop>
        </linearGradient>
    </defs>
    <g id="Page-1-Copy" stroke="none" stroke-width="1" fill="none" fill-rule="evenodd" sketch:type="MSPage">
        <g id="Splash" sketch:type="MSArtboardGroup" transform="translate(-648.000000, -254.000000)" fill="url(#linearGradient-1)">
            <g id="Imported-Layers" sketch:type="MSLayerGroup" transform="translate(624.000000, 230.000000)">
                <path d="M171.426907,93.0722685 C171.414494,92.7424504 171.398591,92.4126323 171.380749,92.0835903 C171.364457,91.4856495 171.330324,90.8892608 171.258177,90.2990805 C170.924209,86.2900448 170.129822,82.8971868 169.295484,78.9568308 C169.147312,78.2556764 168.934752,77.4877823 168.308319,77.4427719 C164.934115,77.2014226 161.562239,76.916615 158.185709,76.7121278 C157.485966,76.6698335 157.099245,76.5196693 156.860309,75.8057101 C155.590376,72.008922 153.896487,68.4007123 151.918278,64.9275339 C151.742955,64.564346 151.724336,64.3109681 151.851562,64.034697 C151.895005,63.9629131 151.947369,63.888801 152.006716,63.8092566 C152.709562,62.8683051 153.406977,61.9234733 154.105168,60.9790295 C155.525988,59.0773373 155.325452,59.3299391 156.748598,57.429411 C157.051536,57.0254808 158.567774,55.4640833 158.221006,54.9635358 C157.343612,53.6974224 158.221006,54.9635358 157.610477,54.0749671 C157.316461,53.6780214 156.354508,52.5352987 156.05894,52.1348608 C156.043037,52.1476655 156.231549,51.4791048 153.94536,49.4303526 C153.657162,49.1719304 131.361587,68.7464392 128.351994,70.3450869 C128.096767,70.4805063 111.171058,84.3130764 111.436371,84.3080321 C143.42866,83.6786616 147.126746,83.3441873 146.992151,83.5319896 C134.198959,90.290932 123.241234,98.1475867 111.503863,107.80078 C111.29712,107.971121 100.993368,117.222324 91.7834493,125.503086 C82.8279822,133.554527 79.2163937,138.113777 71.872197,145.421382 C71.530859,145.7609 59.5607571,158.888436 59.9851022,159.118532 C60.4881879,159.390923 64.3806044,161.527368 64.6978935,161.667832 C64.8708898,161.757853 65.0438861,161.847486 65.2172703,161.935955 C65.4503886,162.055077 65.9604561,161.952252 66.1671983,161.760957 C66.3576494,161.570439 66.5465489,161.381472 66.7373879,161.190954 C66.9324936,161.017896 67.1500965,160.814573 67.4072636,160.574 C67.7268801,160.274836 68.0542542,159.98382 68.3649494,159.675343 C70.2558841,157.794992 72.1441037,155.910373 74.0478387,154.012561 C74.2410049,153.909735 75.4465486,154.478186 75.6699698,154.523973 C75.9919136,154.648527 77.9631403,155.282554 78.2866356,155.404393 C78.385934,155.445523 78.4553652,155.475789 78.5057901,155.497906 C78.5282874,155.496354 78.6155613,155.514203 78.8432493,155.578226 C78.9165594,155.598791 79.1729507,155.698901 79.2462608,155.719466 C81.928479,156.625884 82.3264481,156.878486 85.1347287,157.385629 C85.4923578,157.517557 87.2165024,157.805468 87.3258857,158.368487 C87.8320744,160.973662 88.4018761,163.566808 88.9860294,166.156462 C89.161353,166.99614 89.3390039,167.835818 89.5120002,168.676272 C89.6244866,169.220666 89.924321,169.368114 90.4883044,169.371218 C90.6977618,169.389455 90.9068313,169.407304 91.1162887,169.425541 C92.0995748,169.556692 93.0882912,169.66301 94.0723531,169.648653 C94.0832138,169.648653 94.0940746,169.648265 94.1049353,169.648265 C94.8547152,169.697544 95.6041072,169.732466 96.3534992,169.732466 C99.2936603,169.732078 102.233434,169.540784 105.174371,169.473656 C105.454423,169.46706 105.674353,169.417393 105.849677,169.32776 C106.279452,169.303703 106.464085,169.129869 106.558341,168.697613 C107.317818,165.217063 108.116471,161.745048 108.851511,158.259453 C108.943052,157.826422 110.79481,157.497768 111.098524,157.367004 C111.183858,157.341783 113.188831,156.912631 113.290844,156.885082 C117.197225,155.824232 117.262001,155.86575 120.911215,154.459173 C121.586909,154.198423 121.958502,154.026141 122.428617,154.504571 C124.847074,156.96579 127.313629,159.379283 129.73674,161.836233 C130.122297,162.227359 130.406228,162.25064 130.847253,162.016663 C130.938017,161.993382 131.033437,161.95652 131.13739,161.900645 C131.661421,161.617389 132.183125,161.33103 132.702502,161.041178 C133.430172,160.671781 134.15474,160.298505 134.838192,159.860041 C135.096134,159.693968 135.353689,159.527119 135.611245,159.36027 C137.719006,158.096872 139.775568,156.754319 141.759595,155.295359 C142.678492,154.681121 143.602432,154.064167 144.535293,153.444497 C144.465862,153.260963 144.397206,153.079757 144.327775,152.897387 C144.354927,152.668067 144.306054,152.414689 144.1893,152.108928 C142.972896,148.914737 141.792177,145.706965 140.635895,142.490657 C140.543966,142.234175 141.124628,141.604028 141.288703,141.396049 C143.534552,139.220414 145.088804,137.554638 147.004563,135.094196 C147.606171,134.331734 148.255877,133.461014 148.825291,132.670227 C149.188738,132.276773 149.492839,131.892244 150.063804,132.031932 C153.592774,132.894503 157.137258,133.692275 160.709282,134.519924 L161.040147,133.933624 C161.190259,133.812561 161.309339,133.624371 161.418334,133.372933 C161.587452,132.982584 161.789152,132.606591 162.011409,132.243791 C162.253061,131.849562 162.460579,131.440587 162.67663,131.034717 C162.881045,130.671917 163.085848,130.308729 163.29259,129.942825 C163.27979,129.938169 163.266602,129.933513 163.253414,129.928857 C164.068746,128.330597 164.82512,126.705952 165.533396,125.058802 C165.562488,125.077815 165.95076,123.943628 166.037646,123.999892 C166.442209,122.91576 166.423202,122.985992 166.805268,121.952691 C167.050023,121.324873 167.291287,120.695502 167.524793,120.062252 C167.872725,119.119748 167.624479,118.579622 166.860348,118.020872 C164.24213,116.106375 161.66852,114.129795 159.061939,112.198613 C158.726419,111.950279 158.556526,112.011975 158.50998,111.649951 C158.51735,111.549453 158.705085,110.824629 158.735728,110.705895 C159.021211,109.603139 159.046811,109.665998 159.195759,108.540348 C159.238426,108.219455 159.506454,106.875349 159.547182,106.554067 C159.965709,104.053658 160.003721,101.716218 160.196888,99.1828274 C160.263604,98.7063373 160.396648,98.3866078 161.023081,98.1693158 C164.294495,97.0335776 167.529836,95.7926856 170.764401,94.5533457 C171.037471,94.4489679 171.398591,94.0799597 171.398203,93.8343423 C171.397815,93.738889 171.397815,93.6426597 171.397428,93.5468185 C171.424579,93.4082949 171.433501,93.2515343 171.426907,93.0722685 Z M84.0649444,103.054116 C75.4259907,103.919403 65.4651282,104.803703 65.4651282,104.803703 C68.4017984,100.319342 98.2250398,55.2817133 98.5066436,54.857218 C101.754009,49.9658219 117.441204,26.0800088 117.254632,26.0404306 C113.511163,25.244987 118.315882,26.2992408 113.89284,25.3287996 C113.511163,25.244987 113.027859,25.2143333 112.012379,24.9683278 C110.157129,24.605916 110.282028,24.6392858 110.15519,24.6097962 C110.047358,24.7642287 108.817378,27.0415255 108.750274,27.1637522 C107.031171,30.2877114 107.006735,30.2749067 105.338058,33.4256394 C105.231389,33.6266344 105.126661,33.783783 105.012623,33.9044576 C104.843893,34.0228041 104.437391,34.7887581 104.130962,34.7709091 C100.123732,34.5342161 96.6207513,34.4744609 93.6580929,34.7709091 C91.7186726,34.9649197 91.4777966,33.8815644 91.2427389,33.4361159 C89.7043907,30.5220762 88.4247612,28.2145138 86.9058073,25.3501408 C86.6315732,24.8332964 85.9384244,24.5077466 85.3666833,24.6303613 C80.4118524,25.6923755 79.1302835,26.0811728 74.1347247,27.5277161 C73.8054111,27.6231693 70.6914779,28.6533658 70.5704581,28.8341837 C70.2217504,28.966111 69.5879478,29.2357857 69.6267362,29.7301248 C69.9025218,33.2343449 70.0336266,35.9834756 70.3388913,39.4849795 C70.3827222,39.986691 70.3827222,39.986691 70.3850495,40.5912281 C70.4587475,41.1786923 70.0813363,41.3571821 70.0619421,41.3672706 C66.7412667,43.0365381 64.2750999,44.603368 61.3209749,46.8523393 C60.9788612,47.0995088 60.6414021,47.3431862 60.3085975,47.5810432 C60.0541456,47.6753324 59.0619382,47.1899178 58.7768434,47.0323811 C55.7121715,45.3363402 52.4671335,43.7229477 49.3745339,42.0785136 C49.3745339,42.0785136 49.3745339,42.0785136 48.6115659,42.7090482 C48.5793716,42.7354336 49.4047888,42.0501881 49.3745339,42.0785136 C49.2267501,42.1188678 47.6604742,43.5743356 47.497175,43.7361405 C46.4929432,44.7329671 46.4006268,44.7376234 45.4313046,45.7647157 C45.0946212,46.09919 44.7369921,46.5275655 44.3968178,46.8639799 C44.4107816,46.8771726 43.5426971,47.6272177 43.5566609,47.6400224 C41.749897,49.6096184 40.5342684,50.9059974 39.160383,53.0079086 C38.3818997,54.1987459 38.4350398,56.02555 39.2464933,57.1213221 C41.0059354,59.4971763 43.1808013,62.3766821 44.9786439,64.7940546 C42.8654515,68.5714416 41.0482147,72.226602 39.6937236,76.38619 C39.5149091,76.93524 38.6739764,76.6655653 38.2686376,76.6927268 C34.7776811,76.9278676 31.2878882,77.1785294 27.7965438,77.4039697 C27.2930703,77.4365635 27.0929222,77.6701523 26.9994421,78.1361659 C26.6038004,80.1123582 26.079769,82.0691494 25.8004925,84.0612506 C25.390499,86.9857669 24.9378384,89.6111188 24.8249641,92.8704974 C24.7943213,93.7474255 25.1108346,94.0935405 25.865657,94.3670955 C28.9854085,95.4977894 32.0803354,96.6979392 35.2004747,97.8278571 C35.8381561,98.0587298 36.0864019,98.3493577 36.0992021,99.0590486 C36.1694091,102.997852 36.8334666,106.863708 37.7112482,110.689598 C37.8260619,111.189757 37.7748612,111.496682 37.5483369,111.775282 C34.5794723,113.976526 30.9131922,116.811798 28.1665852,118.89004 L28.2922597,119.276121 C28.5641664,120.791344 30.5443145,125.308687 31.1591107,126.660165 C32.7525384,130.163221 33.3421222,131.194194 35.1341465,134.256458 C39.026563,133.365949 42.7083585,132.511138 46.4002389,131.704054 C46.6682668,131.645463 47.1356671,131.842577 47.3012936,132.072674 C49.5874822,135.250568 52.1238561,138.208842 54.9259305,140.931588 C55.1078481,141.122882 55.2874384,141.312624 55.4643136,141.500815 C55.5477086,141.622265 55.5989093,141.741 55.6237339,141.862839 C54.6171748,144.637967 53.6342766,147.3611 52.6451722,150.068324 C52.2759066,151.038377 51.9062531,152.009983 51.5338844,152.984304 C51.6514133,153.075101 51.7670027,153.164346 51.883368,153.254367 C51.9446536,153.326151 55.1625398,156.078774 55.2261527,155.974396 C58.0313302,151.352675 62.1211797,142.830176 62.5303974,142.155795 C64.7168998,138.549913 72.5184118,123.304169 72.5184118,123.304169 C78.0484748,113.556299 84.3128023,103.029282 84.0649444,103.054116 Z" id="Stroke-4" sketch:type="MSShapeGroup"></path>
            </g>
        </g>
    </g>
</svg>