<?xml version="1.0" encoding="UTF-8" standalone="no"?>
<svg width="30px" height="22px" viewBox="0 0 30 22" version="1.1" xmlns="http://www.w3.org/2000/svg" xmlns:xlink="http://www.w3.org/1999/xlink" xmlns:sketch="http://www.bohemiancoding.com/sketch/ns">
    <!-- Generator: Sketch 3.2.2 (9983) - http://www.bohemiancoding.com/sketch -->
    <title>Shape</title>
    <desc>Created with Sketch.</desc>
    <defs></defs>
    <g id="Page-1-Copy" stroke="none" stroke-width="1" fill="none" fill-rule="evenodd" sketch:type="MSPage">
        <g id="Splash" sketch:type="MSArtboardGroup" transform="translate(-684.000000, -623.000000)" stroke="#00FF00">
            <g id="Play/Mail" sketch:type="MSLayerGroup" transform="translate(622.000000, 623.000000)">
                <g id="mail" transform="translate(63.090909, 0.142857)" sketch:type="MSShapeGroup">
                    <path d="M1.03834365,3.04923014 C1.79745466,3.48589681 12.3130088,9.53923014 12.7050087,9.76423014 C13.0970087,9.98923014 13.6041197,10.0958968 14.1143419,10.0958968 C14.624564,10.0958968 15.1316751,9.98923014 15.523675,9.76423014 C15.915675,9.53923014 26.4312291,3.48589681 27.1903401,3.04923014 C27.9510067,2.61089681 28.6696733,0.905896808 27.2743401,0.905896808 L0.955899217,0.905896808 C-0.439433928,0.905896808 0.279232642,2.61089681 1.03834365,3.04923014 L1.03834365,3.04923014 Z M27.5434512,6.72089681 C26.680118,7.20256348 16.0525638,13.1358968 15.523675,13.4325635 C14.9947862,13.7292301 14.624564,13.7642301 14.1143419,13.7642301 C13.6041197,13.7642301 13.2338976,13.7292301 12.7050087,13.4325635 C12.1761199,13.1358968 1.60923246,7.20089681 0.745899245,6.71923014 C0.139232661,6.37923014 0.145454882,6.77756348 0.145454882,7.08423014 L0.145454882,19.2392301 C0.145454882,19.9392301 1.02589921,20.9058968 1.70101023,20.9058968 L26.5898958,20.9058968 C27.2650068,20.9058968 28.1454511,19.9392301 28.1454511,19.2392301 L28.1454511,7.08589681 C28.1454511,6.77923014 28.1516733,6.38089681 27.5434512,6.72089681 L27.5434512,6.72089681 Z" id="Shape"></path>
                </g>
            </g>
        </g>
    </g>
</svg>