<?xml version="1.0" encoding="UTF-8" standalone="no"?>
<svg width="50px" height="50px" viewBox="0 0 50 50" version="1.1" xmlns="http://www.w3.org/2000/svg" xmlns:xlink="http://www.w3.org/1999/xlink" xmlns:sketch="http://www.bohemiancoding.com/sketch/ns">
    <!-- Generator: Sketch 3.2.2 (9983) - http://www.bohemiancoding.com/sketch -->
    <title>Group</title>
    <desc>Created with Sketch.</desc>
    <defs></defs>
    <g id="Page-1" stroke="none" stroke-width="1" fill="none" fill-rule="evenodd" sketch:type="MSPage">
        <g id="youtube" sketch:type="MSLayerGroup" fill="#FFFFFF">
            <g id="Group" sketch:type="MSShapeGroup">
                <path d="M14.833,26.853 L16.616,26.853 L16.616,35.71 L18.339,35.71 L18.339,26.853 L20.12,26.853 L20.12,25.345 L14.833,25.345 L14.833,26.853 Z" id="Shape"></path>
                <path d="M25.413,19.493 C25.647,19.493 25.833,19.431 25.97,19.304 C26.107,19.173 26.177,18.995 26.177,18.771 L26.177,14.181 C26.177,13.997 26.107,13.847 25.966,13.736 C25.825,13.621 25.642,13.564 25.413,13.564 C25.204,13.564 25.034,13.621 24.901,13.736 C24.77,13.847 24.706,13.998 24.706,14.181 L24.706,18.771 C24.706,19.001 24.767,19.179 24.89,19.304 C25.011,19.431 25.187,19.493 25.413,19.493 L25.413,19.493 Z" id="Shape"></path>
                <path d="M29.212,27.97 C28.974,27.97 28.739,28.031 28.507,28.152 C28.278,28.273 28.058,28.453 27.853,28.685 L27.853,25.345 L26.308,25.345 L26.308,35.71 L27.853,35.71 L27.853,35.124 C28.052,35.36 28.271,35.532 28.505,35.644 C28.737,35.755 29.005,35.81 29.306,35.81 C29.757,35.81 30.107,35.667 30.343,35.378 C30.583,35.087 30.704,34.673 30.704,34.132 L30.704,29.888 C30.704,29.261 30.577,28.784 30.319,28.46 C30.065,28.134 29.696,27.97 29.212,27.97 L29.212,27.97 Z M29.128,33.921 C29.128,34.167 29.083,34.341 28.995,34.448 C28.907,34.557 28.77,34.61 28.583,34.61 C28.454,34.61 28.333,34.581 28.214,34.528 C28.097,34.475 27.974,34.382 27.853,34.258 L27.853,29.494 C27.957,29.387 28.062,29.308 28.167,29.26 C28.272,29.207 28.382,29.184 28.491,29.184 C28.696,29.184 28.856,29.25 28.968,29.381 C29.075,29.516 29.128,29.711 29.128,29.971 L29.128,33.921 L29.128,33.921 Z" id="Shape"></path>
                <path d="M23.628,33.874 C23.485,34.038 23.327,34.173 23.155,34.282 C22.983,34.389 22.839,34.442 22.729,34.442 C22.584,34.442 22.481,34.403 22.415,34.321 C22.353,34.241 22.319,34.11 22.319,33.93 L22.319,28.063 L20.792,28.063 L20.792,34.458 C20.792,34.915 20.882,35.251 21.06,35.483 C21.242,35.71 21.505,35.823 21.859,35.823 C22.146,35.823 22.443,35.745 22.748,35.581 C23.053,35.415 23.346,35.181 23.629,34.872 L23.629,35.71 L25.158,35.71 L25.158,28.064 L23.629,28.064 L23.629,33.874 L23.628,33.874 Z" id="Shape"></path>
                <path d="M25.347,0.155 C11.747,0.155 0.722,11.18 0.722,24.78 C0.722,38.382 11.747,49.405 25.347,49.405 C38.947,49.405 49.972,38.382 49.972,24.78 C49.972,11.18 38.946,0.155 25.347,0.155 L25.347,0.155 Z M29.325,12.317 L31.044,12.317 L31.044,18.776 C31.044,18.977 31.083,19.12 31.155,19.208 C31.225,19.298 31.343,19.345 31.505,19.345 C31.63,19.345 31.79,19.284 31.985,19.167 C32.176,19.046 32.354,18.896 32.514,18.71 L32.514,12.317 L34.237,12.317 L34.237,20.741 L32.514,20.741 L32.514,19.811 C32.2,20.153 31.869,20.416 31.524,20.594 C31.182,20.772 30.85,20.864 30.526,20.864 C30.128,20.864 29.829,20.737 29.626,20.485 C29.427,20.237 29.325,19.862 29.325,19.356 L29.325,12.317 L29.325,12.317 Z M22.935,14.243 C22.935,13.593 23.165,13.073 23.628,12.682 C24.093,12.299 24.716,12.104 25.497,12.104 C26.21,12.104 26.792,12.309 27.249,12.715 C27.702,13.121 27.929,13.649 27.929,14.293 L27.929,18.643 C27.929,19.366 27.706,19.93 27.263,20.338 C26.814,20.746 26.201,20.951 25.419,20.951 C24.667,20.951 24.064,20.74 23.612,20.32 C23.161,19.894 22.934,19.324 22.934,18.609 L22.934,14.243 L22.935,14.243 Z M18.247,9.323 L19.505,13.885 L19.628,13.885 L20.825,9.323 L22.794,9.323 L20.54,16.005 L20.54,20.742 L18.602,20.742 L18.602,16.216 L16.295,9.323 L18.247,9.323 L18.247,9.323 Z M40.786,33.356 C40.786,36.403 38.315,38.876 35.268,38.876 L16.092,38.876 C13.043,38.876 10.572,36.403 10.572,33.356 L10.572,28.918 C10.572,25.869 13.043,23.398 16.092,23.398 L35.268,23.398 C38.315,23.398 40.786,25.869 40.786,28.918 L40.786,33.356 L40.786,33.356 Z" id="Shape"></path>
                <path d="M33.827,27.874 C33.141,27.874 32.587,28.081 32.153,28.501 C31.721,28.917 31.503,29.46 31.503,30.118 L31.503,33.556 C31.503,34.294 31.702,34.872 32.095,35.29 C32.488,35.71 33.027,35.921 33.712,35.921 C34.474,35.921 35.046,35.724 35.427,35.329 C35.814,34.931 36.003,34.341 36.003,33.556 L36.003,33.163 L34.431,33.163 L34.431,33.511 C34.431,33.962 34.378,34.253 34.279,34.384 C34.18,34.515 34.002,34.581 33.748,34.581 C33.504,34.581 33.332,34.505 33.23,34.351 C33.13,34.193 33.082,33.915 33.082,33.511 L33.082,32.072 L36.004,32.072 L36.004,30.119 C36.004,29.396 35.818,28.842 35.442,28.453 C35.065,28.067 34.526,27.874 33.827,27.874 L33.827,27.874 Z M34.431,30.882 L33.081,30.882 L33.081,30.109 C33.081,29.789 33.13,29.556 33.237,29.423 C33.344,29.28 33.518,29.212 33.762,29.212 C33.992,29.212 34.166,29.28 34.27,29.423 C34.375,29.556 34.43,29.788 34.43,30.109 L34.43,30.882 L34.431,30.882 Z" id="Shape"></path>
            </g>
        </g>
    </g>
</svg>